<?xml version="1.0" standalone="no"?>
<!DOCTYPE svg PUBLIC "-//W3C//DTD SVG 20010904//EN"
 "http://www.w3.org/TR/2001/REC-SVG-20010904/DTD/svg10.dtd">
<svg version="1.0" xmlns="http://www.w3.org/2000/svg"
 width="588.000000pt" height="598.000000pt" viewBox="0 0 588.000000 598.000000"
 preserveAspectRatio="xMidYMid meet">
<metadata>
Created by potrace 1.13, written by Peter Selinger 2001-2015
</metadata>
<g transform="translate(0.000000,598.000000) scale(0.100000,-0.100000)"
fill="#A0A0A0" stroke="none">
<path d="M3342 5959 c-18 -12 -39 -34 -47 -50 -20 -38 -19 -108 1 -130 38 -43
-29 -127 -155 -193 -77 -40 -290 -110 -494 -162 -130 -32 -144 -34 -230 -27
-94 8 -257 -3 -387 -27 -36 -6 -186 -38 -335 -71 -321 -71 -497 -98 -701 -106
l-151 -6 -10 29 c-22 63 -116 254 -126 254 -5 0 -6 -8 -2 -17 4 -10 16 -42 26
-72 37 -107 17 -94 -41 28 -33 68 -63 122 -66 119 -3 -3 2 -22 10 -42 19 -45
56 -215 56 -256 0 -23 -4 -30 -20 -30 -43 0 -221 31 -265 46 -61 20 -70 10
-14 -15 112 -49 153 -70 136 -70 -10 -1 -42 8 -72 18 -100 35 -57 5 73 -52 70
-31 139 -59 154 -62 14 -4 28 -15 31 -25 7 -28 -10 -422 -23 -520 -6 -47 -33
-204 -61 -349 -76 -408 -92 -580 -69 -741 11 -76 -12 -198 -86 -470 -64 -231
-129 -356 -205 -396 -28 -14 -33 -14 -54 0 -28 19 -93 21 -129 5 -14 -7 -37
-29 -51 -50 l-25 -39 76 -72 c41 -39 84 -77 94 -82 10 -6 39 -24 64 -40 37
-22 54 -27 83 -23 76 13 107 52 128 158 8 41 24 123 35 183 12 60 35 152 52
205 17 53 45 153 63 224 l32 127 36 -58 c43 -70 94 -118 206 -197 l82 -58 -6
-66 c-9 -92 -42 -292 -61 -365 -49 -195 -153 -440 -257 -604 -48 -76 -48 -75
-67 68 -31 241 33 559 148 729 50 75 65 138 38 160 -13 11 -22 11 -41 3 -23
-10 -25 -9 -25 11 0 48 -56 65 -85 25 -9 -13 -31 -72 -50 -133 -88 -278 -116
-504 -96 -783 6 -92 18 -196 26 -230 l15 -64 -81 -131 c-219 -354 -253 -502
-157 -697 41 -84 103 -149 208 -220 156 -104 219 -131 315 -135 75 -3 177 -26
234 -53 63 -30 67 -92 10 -157 -43 -48 -164 -106 -238 -112 -69 -7 -78 5 -56
69 8 23 13 44 11 45 -4 5 -62 -61 -69 -79 -4 -10 -10 -8 -22 7 -17 21 -13 80
6 100 5 5 9 16 9 25 -1 21 -66 -54 -74 -85 -9 -35 10 -74 45 -93 17 -9 47 -29
66 -44 19 -15 51 -30 70 -34 70 -13 207 33 319 108 105 70 127 121 81 189 -22
33 -138 120 -185 140 -22 8 -17 12 55 49 77 39 183 128 183 155 0 33 -24 22
-83 -37 -85 -85 -159 -122 -252 -125 -59 -3 -66 -1 -45 8 156 71 190 91 243
140 58 55 68 75 43 85 -8 3 -37 -19 -70 -54 -96 -101 -212 -143 -340 -122
-104 16 -169 45 -214 94 -107 116 -132 270 -71 447 17 52 136 297 168 347 6
10 20 5 59 -22 51 -34 149 -73 159 -63 2 3 -9 12 -25 21 -34 17 -90 79 -116
129 l-18 33 46 76 c78 128 192 376 240 518 51 155 79 291 103 505 9 83 18 152
19 154 2 1 31 -6 66 -18 106 -34 180 -42 311 -30 135 11 247 43 320 89 26 16
63 37 83 45 69 29 222 198 306 340 54 91 132 251 163 335 l28 75 136 67 c164
80 255 139 380 243 90 76 181 182 181 211 0 8 10 31 23 52 69 111 91 209 91
397 1 137 -2 157 -26 230 -15 44 -28 84 -28 90 0 5 55 17 122 27 259 37 425
80 618 160 122 50 300 144 407 213 46 30 88 55 94 55 25 0 103 -56 144 -103
25 -29 45 -46 45 -40 0 24 -51 128 -80 165 l-30 37 85 51 c120 72 278 145 360
165 182 45 360 -32 429 -184 15 -33 32 -96 38 -140 19 -131 -13 -221 -120
-333 -50 -53 -59 -78 -27 -78 20 0 103 97 133 155 14 27 36 79 48 115 l24 65
0 -55 c0 -104 -41 -191 -136 -283 -40 -39 -46 -49 -34 -57 23 -15 25 -14 83
51 35 38 68 88 88 134 l32 73 24 -48 c13 -27 51 -76 83 -110 54 -56 61 -60
103 -60 29 0 53 7 70 20 62 49 148 230 164 347 6 44 -19 133 -38 133 -5 0 -20
17 -33 39 -44 69 -106 70 -170 2 -31 -32 -26 -41 8 -16 18 14 106 22 106 10 0
-3 -18 -21 -40 -41 -22 -20 -40 -41 -40 -47 0 -5 8 -3 18 7 11 9 36 17 58 19
l39 2 -1 -70 c-1 -162 -136 -333 -223 -284 -34 19 -93 186 -97 274 -6 121 -87
268 -224 405 -106 107 -201 149 -336 150 -123 0 -223 -44 -479 -211 l-150 -98
-100 16 c-141 21 -509 12 -646 -16 -147 -30 -361 -97 -442 -138 -54 -27 -58
-93 -6 -93 14 0 19 -7 19 -30 0 -23 5 -31 25 -36 38 -9 70 2 127 46 131 99
310 158 548 179 101 10 297 -1 327 -18 32 -17 -340 -225 -517 -289 -157 -57
-367 -106 -501 -117 l-74 -6 -45 62 c-71 97 -159 182 -229 221 l-64 36 44 12
c90 23 257 74 347 107 52 18 165 49 252 67 87 19 172 42 189 51 60 30 89 113
59 168 -20 38 -81 110 -148 174 -36 35 -65 63 -65 63 0 0 -15 -10 -33 -21z
m-32 -364 c0 -9 -117 -82 -165 -102 -63 -27 -352 -117 -425 -133 -47 -10 -64
-10 -114 5 l-59 17 131 33 c73 19 201 57 284 86 84 29 196 63 248 75 52 12 96
23 98 23 1 1 2 -1 2 -4z m780 -98 c54 -15 52 -15 -130 -16 -102 -1 -224 -6
-270 -11 -101 -12 -309 -63 -399 -96 -35 -13 -66 -22 -68 -20 -6 6 76 50 158
84 64 26 205 61 304 76 64 9 351 -3 405 -17z m90 -147 c-115 -92 -403 -239
-587 -299 -216 -71 -518 -119 -518 -82 0 11 37 20 146 37 188 29 306 57 449
106 126 43 357 152 460 216 71 45 88 52 50 22z m1665 -149 c-23 -152 -133
-296 -211 -277 -32 8 -30 19 6 33 43 16 124 146 155 248 14 44 25 88 26 96 0
7 7 -2 16 -20 10 -24 13 -49 8 -80z m-3255 3 c96 -18 221 -80 283 -139 26 -25
47 -50 47 -55 0 -6 -41 -10 -97 -10 -193 0 -529 53 -666 105 -80 30 -188 84
-169 85 7 0 72 7 145 15 221 25 325 25 457 -1z m-720 -127 c179 -51 342 -138
430 -228 44 -45 73 -101 68 -132 -3 -16 -8 -15 -47 15 -24 18 -54 40 -67 48
-12 8 -36 25 -53 38 -39 30 -41 12 -2 -21 17 -14 34 -42 41 -65 6 -23 24 -73
40 -111 17 -38 30 -74 30 -80 0 -5 -24 -26 -52 -47 -29 -21 -55 -39 -57 -41
-2 -2 -2 -6 2 -9 3 -4 32 10 64 29 l58 36 14 -26 c15 -29 17 -26 -55 -79 -45
-34 -24 -36 28 -4 53 33 54 32 64 -55 9 -77 -28 -390 -48 -410 -9 -9 -203 14
-255 30 -42 12 -56 23 -69 48 -83 161 -256 327 -504 481 -75 46 -109 87 -110
134 0 14 -9 27 -25 34 -14 6 -27 23 -30 38 -6 29 -33 43 -56 29 -11 -6 -9 -20
8 -73 12 -37 20 -66 20 -66 -1 0 -24 7 -51 15 -70 21 -78 20 -74 -12 2 -23 10
-30 39 -37 21 -5 39 -17 45 -30 6 -13 23 -23 50 -29 36 -7 47 -15 79 -65 155
-235 334 -410 513 -501 35 -18 42 -27 61 -88 22 -69 41 -167 41 -214 0 -23 -6
-27 -74 -43 -150 -35 -396 -61 -396 -41 0 3 9 24 21 46 11 23 18 44 15 47 -7
7 -7 7 -39 -45 -25 -40 -28 -41 -58 -33 -17 5 -34 11 -36 13 -2 3 10 28 27 57
43 73 32 85 -16 17 -21 -31 -44 -57 -50 -57 -5 0 -48 15 -95 34 -46 19 -101
37 -121 41 -20 4 -48 20 -64 36 -15 16 -32 29 -38 29 -5 0 4 -15 22 -33 18
-18 32 -37 32 -41 0 -4 25 -36 55 -69 30 -34 50 -64 44 -66 -6 -2 -30 4 -54
14 -46 17 -119 88 -176 172 -47 67 -115 218 -142 313 -34 117 -51 303 -37 400
15 104 39 427 40 531 l0 87 83 7 c45 3 119 11 164 16 45 5 123 14 175 19 51 6
113 15 138 20 25 5 115 7 200 5 126 -3 171 -8 240 -28z m404 -37 c117 -40 272
-62 483 -67 157 -4 203 -9 207 -19 9 -24 -40 -27 -203 -15 -243 17 -464 59
-521 97 -42 29 -39 29 34 4z m161 -96 c117 -25 293 -43 426 -44 l127 0 15 -38
c38 -96 48 -264 22 -386 -27 -129 -86 -229 -208 -354 -74 -77 -158 -125 -262
-152 -121 -31 -113 -39 -93 98 25 163 33 335 19 405 -8 47 -8 63 3 80 66 105
37 201 -106 361 -32 37 -45 57 -33 52 11 -4 52 -14 90 -22z m18 -631 c8 -46 8
-95 -1 -185 -17 -174 -20 -182 -65 -186 -41 -4 -42 -1 -27 63 14 57 50 337 51
393 l1 47 15 -35 c8 -19 20 -63 26 -97z m-849 34 c33 -22 87 -68 120 -101 58
-58 162 -193 154 -201 -5 -6 -129 75 -183 120 -51 42 -155 166 -181 217 -15
29 -15 29 8 17 13 -7 50 -30 82 -52z m1286 -366 c-36 -51 -131 -128 -235 -190
-126 -75 -272 -147 -281 -139 -3 4 -1 22 5 40 12 36 25 43 311 188 74 37 153
82 175 98 50 38 51 38 25 3z m-2075 -203 c57 -123 98 -280 129 -493 20 -141
31 -315 19 -315 -21 0 -112 109 -143 169 -58 115 -74 204 -74 401 -1 165 10
330 20 330 3 0 25 -42 49 -92z m1415 46 c41 -4 70 -11 69 -18 0 -6 -8 -33 -18
-61 -14 -40 -25 -54 -53 -68 -20 -10 -49 -19 -64 -20 -25 -2 -27 2 -40 63 -8
35 -20 81 -28 101 l-15 36 40 -13 c21 -8 70 -17 109 -20z m-1306 -197 c54 -73
126 -457 126 -669 0 -47 0 -47 -25 -36 -24 11 -25 15 -25 102 0 187 -43 452
-97 596 -26 68 -24 69 21 7z m1381 -92 c-37 -100 -129 -279 -190 -370 -48 -72
-135 -170 -135 -152 0 4 14 30 31 58 37 59 99 197 99 219 0 8 7 29 16 45 9 17
38 77 65 134 45 100 50 105 91 121 24 9 44 16 46 15 1 -2 -9 -33 -23 -70z
m-295 22 c0 -34 0 -34 -72 -50 -142 -31 -271 -42 -339 -29 -78 14 -100 32 -40
32 50 0 313 44 386 64 28 8 53 15 58 15 4 1 7 -14 7 -32z m-874 -119 c115 -77
189 -83 278 -23 33 22 47 25 134 25 63 0 159 11 270 30 96 17 176 30 178 30
21 0 -18 -184 -57 -267 -76 -161 -259 -309 -444 -358 -80 -21 -262 -21 -350 1
l-65 16 0 99 c0 144 -33 370 -77 529 -7 25 -6 25 28 -5 19 -17 66 -52 105 -77z
m944 -40 c-22 -150 -59 -226 -154 -308 l-38 -34 39 64 c71 119 123 267 123
355 0 45 33 68 38 27 2 -14 -1 -61 -8 -104z m-1479 -145 c26 -78 24 -93 -38
-318 -58 -212 -95 -303 -150 -369 l-25 -31 7 55 c9 66 40 190 93 366 21 71 49
183 62 247 14 64 25 117 26 117 1 0 12 -30 25 -67z m439 -474 c0 -49 -30 -260
-51 -359 -52 -239 -147 -464 -296 -702 -63 -101 -91 -120 -37 -25 51 89 135
266 179 375 72 183 112 357 142 613 l17 147 23 -11 c16 -7 23 -19 23 -38z
m-410 -176 c-77 -242 -104 -459 -90 -743 4 -96 7 -176 5 -178 -9 -9 -56 230
-61 310 -12 175 22 394 84 544 26 63 77 154 86 154 2 0 -9 -39 -24 -87z m517
-2377 c-13 -99 -224 -216 -337 -186 -22 6 -40 12 -40 15 0 2 35 15 79 30 136
45 253 128 267 188 6 30 7 30 21 11 9 -12 13 -33 10 -58z"/>
<path d="M2540 5945 c-19 -11 -45 -13 -105 -9 -90 7 -183 -11 -244 -48 -20
-12 -103 -87 -186 -168 -210 -205 -338 -284 -484 -299 -62 -6 -90 -24 -57 -37
8 -3 110 26 226 66 116 39 215 70 221 68 16 -5 -146 -107 -213 -134 -35 -14
-91 -28 -126 -31 -67 -6 -76 -11 -62 -33 8 -13 32 -7 147 33 76 27 201 67 278
88 372 106 510 162 573 234 37 42 62 104 62 153 0 11 13 25 35 35 19 9 35 21
35 27 0 6 -18 1 -40 -10 -38 -19 -71 -25 -82 -15 -14 14 6 54 33 66 16 6 32
16 35 20 8 14 -18 10 -46 -6z"/>
<path d="M507 4343 c-13 -155 -87 -285 -287 -503 -90 -98 -150 -174 -168 -209
-25 -52 -27 -66 -28 -186 0 -76 -6 -142 -13 -159 -18 -45 -5 -43 19 3 17 34
25 41 50 41 27 0 30 -3 30 -32 -1 -18 -7 -44 -15 -58 -17 -30 -18 -40 -6 -40
5 0 15 15 22 34 11 31 18 35 68 45 115 23 168 86 230 274 47 143 53 165 87
317 14 63 48 183 74 266 59 186 64 214 35 214 -11 0 -15 -11 -15 -43 0 -92
-49 -217 -132 -340 -22 -32 -41 -57 -43 -55 -6 6 33 154 81 303 44 136 51 185
28 192 -7 2 -13 -21 -17 -64z"/>
</g>
</svg>
