<?xml version="1.0"?>
<svg width="588" height="598" xmlns="http://www.w3.org/2000/svg" xmlns:svg="http://www.w3.org/2000/svg" preserveAspectRatio="xMidYMid meet">
 <metadata>Created by potrace 1.13, written by Peter Selinger 2001-2015</metadata>
 <g>
  <title>Layer 1</title>
  <g id="svg_1" fill="#A0A0A0" transform="rotate(45 291.0999755859376,351.1499938964843) translate(0,598) scale(0.10000000149011612,-0.10000000149011612) ">
   <path stroke="null" id="svg_2" d="m3228.085826,4812.875845c-14.1276,-9.461076 -30.6098,-26.806381 -36.888733,-39.421148c-15.697333,-29.960073 -14.912467,-85.149681 0.784867,-102.494986c29.824933,-33.902188 -22.761133,-100.129717 -121.654333,-152.165633c-60.434733,-31.536919 -227.611333,-86.726526 -387.724132,-127.724521c-102.032666,-25.229535 -113.0208,-26.806381 -180.519333,-21.28742c-73.777466,6.307384 -201.710733,-2.365269 -303.743399,-21.28742c-28.2552,-4.730538 -145.985199,-29.960073 -262.930332,-55.978031c-251.942199,-55.978031 -390.078732,-77.265451 -550.191531,-83.572835l-118.514866,-4.730538l-7.848667,22.864266c-17.267067,49.670647 -91.044533,200.259434 -98.8932,200.259434c-3.924333,0 -4.7092,-6.307384 -1.569733,-13.40319c3.139467,-7.88423 12.557867,-33.113765 20.406533,-56.766454c29.040067,-84.361258 13.342733,-74.111759 -32.179533,22.075843c-25.9006,53.612762 -49.4466,96.187602 -51.8012,93.822333c-2.3546,-2.365269 1.569733,-17.345305 7.848667,-33.113765c14.912467,-35.479034 43.952533,-169.510938 43.952533,-201.83628c0,-18.133728 -3.139467,-23.652689 -15.697333,-23.652689c-33.749267,0 -173.455533,24.441112 -207.989666,36.267457c-47.876866,15.768459 -54.940666,7.88423 -10.988133,-11.826345c87.905066,-38.632725 120.0846,-55.189608 106.741866,-55.189608c-7.848667,-0.788423 -32.9644,6.307384 -56.5104,14.191613c-78.486666,27.594804 -44.7374,3.942115 57.295266,-40.997994c54.940666,-24.441112 109.096466,-46.516955 120.869466,-48.882224c10.988133,-3.153692 21.976267,-11.826345 24.330867,-19.710574c5.494067,-22.075843 -7.848667,-332.714492 -18.051933,-409.979943c-4.7092,-37.055879 -25.9006,-160.838285 -47.876866,-275.159616c-59.649866,-321.676571 -72.207733,-457.285321 -54.1558,-584.221419c8.633533,-59.920146 -9.4184,-156.107748 -67.498533,-370.558795c-50.231466,-182.125706 -101.2478,-280.678577 -160.897666,-312.215495c-21.976267,-11.037922 -25.9006,-11.037922 -42.3828,0c-21.976267,14.980036 -72.9926,16.556882 -101.2478,3.942115c-10.988133,-5.518961 -29.040067,-22.864266 -40.0282,-39.421148l-19.621667,-30.748496l59.649866,-56.766454c32.179533,-30.748496 65.9288,-60.708569 73.777466,-64.650683c7.848667,-4.730538 30.6098,-18.922151 50.231466,-31.536919c29.040067,-17.345305 42.3828,-21.28742 65.143933,-18.133728c59.649866,10.249499 83.980733,40.997994 100.462933,124.570829c6.278933,32.325342 18.8368,96.976025 27.470333,144.281403c9.4184,47.305378 27.470333,119.840291 40.813067,161.626708c13.342733,41.786417 35.319,120.628714 49.4466,176.606745l25.115733,100.129717l28.2552,-45.728532c33.749267,-55.189608 73.777466,-93.03391 161.682533,-155.319325l64.359066,-45.728532l-4.7092,-52.035916c-7.0638,-72.534913 -32.9644,-230.219507 -47.876866,-287.774383c-38.458467,-153.742479 -120.0846,-346.906106 -201.710733,-476.207473c-37.6736,-59.920146 -37.6736,-59.131723 -52.586066,53.612762c-24.330867,190.009935 25.9006,440.728439 116.160266,574.760343c39.243333,59.131723 51.016333,108.80237 29.824933,126.147675c-10.203267,8.672653 -17.267067,8.672653 -32.179533,2.365269c-18.051933,-7.88423 -19.621667,-7.095807 -19.621667,8.672653c0,37.844302 -43.952533,51.247493 -66.713666,19.710574c-7.0638,-10.249499 -24.330867,-56.766454 -39.243333,-104.860255c-69.068266,-219.181585 -91.044533,-397.365176 -75.3472,-617.335184c4.7092,-72.534913 14.1276,-154.530902 20.406533,-181.337283l11.773,-50.45907l-63.5742,-103.283409c-171.885799,-279.101731 -198.571266,-395.78833 -123.224066,-549.530809c32.179533,-66.227529 80.841266,-117.475022 163.252266,-173.453053c122.4392,-81.995989 171.885799,-103.283409 247.232999,-106.437101c58.865,-2.365269 138.9214,-20.498997 183.658799,-41.786417c49.4466,-23.652689 52.586066,-72.534913 7.848667,-123.782406c-33.749267,-37.844302 -128.718133,-83.572835 -186.798266,-88.303372c-54.1558,-5.518961 -61.2196,3.942115 -43.952533,54.401185c6.278933,18.133728 10.203267,34.690611 8.633533,35.479034c-3.139467,3.942115 -48.661733,-48.093801 -54.1558,-62.285414c-3.139467,-7.88423 -7.848667,-6.307384 -17.267067,5.518961c-13.342733,16.556882 -10.203267,63.073837 4.7092,78.842297c3.924333,3.942115 7.0638,12.614767 7.0638,19.710574c-0.784867,16.556882 -51.8012,-42.57484 -58.080133,-67.015952c-7.0638,-27.594804 7.848667,-58.3433 35.319,-73.323336c13.342733,-7.095807 36.888733,-22.864266 51.8012,-34.690611c14.912467,-11.826345 40.0282,-23.652689 54.940666,-26.806381c54.940666,-10.249499 162.467399,26.017958 250.372466,85.149681c82.411,55.189608 99.678066,95.399179 63.5742,149.011941c-17.267067,26.017958 -108.3116,94.610756 -145.200333,110.379215c-17.267067,6.307384 -13.342733,9.461076 43.167667,38.632725c60.434733,30.748496 143.630599,100.91814 143.630599,122.20556c0,26.017958 -18.8368,17.345305 -65.143933,-29.17165c-66.713666,-67.015952 -124.7938,-96.187602 -197.786399,-98.552871c-46.307133,-2.365269 -51.8012,-0.788423 -35.319,6.307384c122.4392,55.978031 149.124666,71.74649 190.722599,110.379215c45.522267,43.363263 53.370933,59.131723 33.749267,67.015952c-6.278933,2.365269 -29.040067,-14.980036 -54.940666,-42.57484c-75.3472,-79.63072 -166.391733,-112.744484 -266.854666,-96.187602c-81.626133,12.614767 -132.642466,35.479034 -167.961466,74.111759c-83.980733,91.457064 -103.6024,212.874201 -55.725533,352.425067c13.342733,40.997994 106.741866,234.161621 131.8576,273.58277c4.7092,7.88423 15.697333,3.942115 46.307133,-17.345305c40.0282,-26.806381 116.945133,-57.554877 124.7938,-49.670647c1.569733,2.365269 -7.0638,9.461076 -19.621667,16.556882c-26.685467,13.40319 -70.638,62.285414 -91.044533,101.706563l-14.1276,26.017958l36.103867,59.920146c61.2196,100.91814 150.694399,296.447036 188.367999,408.403097c40.0282,122.20556 62.004466,229.431084 80.841266,398.153599c7.0638,65.439106 14.1276,119.840291 14.912467,121.417137c1.569733,0.788423 24.330867,-4.730538 51.8012,-14.191613c83.195866,-26.806381 141.276,-33.113765 244.093532,-23.652689c105.957,8.672653 193.862066,33.902188 251.157332,70.169644c20.406533,12.614767 49.4466,29.17165 65.143933,35.479034c54.1558,22.864266 174.240399,156.107748 240.169199,268.063809c42.3828,71.74649 103.6024,197.894165 127.933266,264.121694l21.976267,59.131723l106.741866,52.824339c128.718133,63.073837 200.140999,109.590793 298.249332,191.586781c70.638,59.920146 142.060866,143.49298 142.060866,166.357246c0,6.307384 7.848667,24.441112 18.051933,40.997994c54.1558,87.514949 71.422866,164.7804 71.422866,313.003918c0.784867,108.013947 -1.569733,123.782406 -20.406533,181.337283c-11.773,34.690611 -21.976267,66.227529 -21.976267,70.958067c0,3.942115 43.167667,13.40319 95.753733,21.28742c203.280466,29.17165 333.568332,63.073837 485.047598,126.147675c95.753733,39.421148 235.459999,113.532907 319.440732,167.934092c36.103867,23.652689 69.068266,43.363263 73.777466,43.363263c19.621667,0 80.841266,-44.151686 113.0208,-81.207566c19.621667,-22.864266 35.319,-36.267457 35.319,-31.536919c0,18.922151 -40.0282,100.91814 -62.789333,130.08979l-23.546,29.17165l66.713666,40.209571c94.184,56.766454 218.192933,114.32133 282.551999,130.08979c142.845733,35.479034 282.551999,-25.229535 336.707799,-145.069826c11.773,-26.017958 25.115733,-75.688605 29.824933,-110.379215c14.912467,-103.283409 -10.203267,-174.241476 -94.184,-262.544848c-39.243333,-41.786417 -46.307133,-61.496991 -21.1914,-61.496991c15.697333,0 80.841266,76.477028 104.387266,122.20556c10.988133,21.28742 28.2552,62.285414 37.6736,90.668641l18.8368,51.247493l0,-43.363263c0,-81.995989 -32.179533,-150.588787 -106.741866,-223.1237c-31.394667,-30.748496 -36.103867,-38.632725 -26.685467,-44.940109c18.051933,-11.826345 19.621667,-11.037922 65.143933,40.209571c27.470333,29.960073 53.370933,69.381221 69.068266,105.648678l25.115733,57.554877l18.8368,-37.844302c10.203267,-21.28742 40.0282,-59.920146 65.143933,-86.726526c42.3828,-44.151686 47.876866,-47.305378 80.841266,-47.305378c22.761133,0 41.597933,5.518961 54.940666,15.768459c48.661733,38.632725 116.160266,181.337283 128.718133,273.58277c4.7092,34.690611 -14.912467,104.860255 -29.824933,104.860255c-3.924333,0 -15.697333,13.40319 -25.9006,30.748496c-34.534133,54.401185 -83.195866,55.189608 -133.427333,1.576846c-24.330867,-25.229535 -20.406533,-32.325342 6.278933,-12.614767c14.1276,11.037922 83.195866,17.345305 83.195866,7.88423c0,-2.365269 -14.1276,-16.556882 -31.394667,-32.325342c-17.267067,-15.768459 -31.394667,-32.325342 -31.394667,-37.055879c0,-3.942115 6.278933,-2.365269 14.1276,5.518961c8.633533,7.095807 28.2552,13.40319 45.522267,14.980036l30.6098,1.576846l-0.784867,-55.189608c-0.784867,-127.724521 -106.741866,-262.544848 -175.025266,-223.912123c-26.685467,14.980036 -72.9926,146.646672 -76.132066,216.027893c-4.7092,95.399179 -68.2834,211.297355 -175.810133,319.311302c-83.195866,84.361258 -157.758199,117.475022 -263.715199,118.263445c-96.5386,0 -175.025266,-34.690611 -375.951132,-166.357246l-117.73,-77.265451l-78.486666,12.614767c-110.6662,16.556882 -399.497132,9.461076 -507.023865,-12.614767c-115.3754,-23.652689 -283.336866,-76.477028 -346.911065,-108.80237c-42.3828,-21.28742 -45.522267,-73.323336 -4.7092,-73.323336c10.988133,0 14.912467,-5.518961 14.912467,-23.652689c0,-18.133728 3.924333,-24.441112 19.621667,-28.383227c29.824933,-7.095807 54.940666,1.576846 99.678066,36.267457c102.817533,78.053874 243.308666,124.570829 430.106932,141.127711c79.271533,7.88423 233.105399,-0.788423 256.651399,-14.191613c25.115733,-13.40319 -266.854666,-177.395168 -405.776065,-227.854238c-123.224066,-44.940109 -288.046066,-83.572835 -393.218199,-92.245487l-58.080133,-4.730538l-35.319,48.882224c-55.725533,76.477028 -124.7938,143.49298 -179.734466,174.241476l-50.231466,28.383227l34.534133,9.461076c70.638,18.133728 201.710733,58.3433 272.348732,84.361258c40.813067,14.191613 129.503,38.632725 197.786399,52.824339c68.2834,14.980036 134.997066,33.113765 148.339799,40.209571c47.092,23.652689 69.853133,89.091795 46.307133,132.455059c-15.697333,29.960073 -63.5742,86.726526 -116.160266,137.185596c-28.2552,27.594804 -51.016333,49.670647 -51.016333,49.670647c0,0 -11.773,-7.88423 -25.9006,-16.556882zm-25.115733,-286.98596c0,-7.095807 -91.8294,-64.650683 -129.503,-80.419143c-49.4466,-21.28742 -276.273066,-92.245487 -333.568332,-104.860255c-36.888733,-7.88423 -50.231466,-7.88423 -89.4748,3.942115l-46.307133,13.40319l102.817533,26.017958c57.295266,14.980036 157.758199,44.940109 222.902133,67.804375c65.9288,22.864266 153.833866,49.670647 194.646933,59.131723c40.813067,9.461076 75.3472,18.133728 76.916933,18.133728c0.784867,0.788423 1.569733,-0.788423 1.569733,-3.153692zm612.195998,-77.265451c42.3828,-11.826345 40.813067,-11.826345 -102.032666,-12.614767c-80.0564,-0.788423 -175.810133,-4.730538 -211.913999,-8.672653c-79.271533,-9.461076 -242.523799,-49.670647 -313.161799,-75.688605c-27.470333,-10.249499 -51.8012,-17.345305 -53.370933,-15.768459c-4.7092,4.730538 59.649866,39.421148 124.008933,66.227529c50.231466,20.498997 160.897666,48.093801 238.599466,59.920146c50.231466,7.095807 275.488199,-2.365269 317.870999,-13.40319zm70.638,-115.898176c-90.259666,-72.534913 -316.301266,-188.433089 -460.716732,-235.738467c-169.531199,-55.978031 -406.560932,-93.822333 -406.560932,-64.650683c0,8.672653 29.040067,15.768459 114.590533,29.17165c147.554933,22.864266 240.169199,44.940109 352.405132,83.572835c98.8932,33.902188 280.197399,119.840291 361.038665,170.299361c55.725533,35.479034 69.068266,40.997994 39.243333,17.345305zm1306.802995,-117.475022c-18.051933,-119.840291 -104.387266,-233.373198 -165.606866,-218.393162c-25.115733,6.307384 -23.546,14.980036 4.7092,26.017958c33.749267,12.614767 97.323466,115.109753 121.654333,195.528896c10.988133,34.690611 19.621667,69.381221 20.406533,75.688605c0,5.518961 5.494067,-1.576846 12.557867,-15.768459c7.848667,-18.922151 10.203267,-38.632725 6.278933,-63.073837zm-2554.740991,2.365269c75.3472,-14.191613 173.455533,-63.073837 222.117266,-109.590793c20.406533,-19.710574 36.888733,-39.421148 36.888733,-43.363263c0,-4.730538 -32.179533,-7.88423 -76.132066,-7.88423c-151.479266,0 -415.194465,41.786417 -522.721198,82.784412c-62.789333,23.652689 -147.554933,66.227529 -132.642466,67.015952c5.494067,0 56.5104,5.518961 113.805666,11.826345c173.455533,19.710574 255.081666,19.710574 358.684065,-0.788423zm-565.103998,-100.129717c140.491133,-40.209571 268.424399,-108.80237 337.492665,-179.760437c34.534133,-35.479034 57.295266,-79.63072 53.370933,-104.071832c-2.3546,-12.614767 -6.278933,-11.826345 -36.888733,11.826345c-18.8368,14.191613 -42.3828,31.536919 -52.586066,37.844302c-9.4184,6.307384 -28.2552,19.710574 -41.597933,29.960073c-30.6098,23.652689 -32.179533,9.461076 -1.569733,-16.556882c13.342733,-11.037922 26.685467,-33.113765 32.179533,-51.247493c4.7092,-18.133728 18.8368,-57.554877 31.394667,-87.514949c13.342733,-29.960073 23.546,-58.3433 23.546,-63.073837c0,-3.942115 -18.8368,-20.498997 -40.813067,-37.055879c-22.761133,-16.556882 -43.167667,-30.748496 -44.7374,-32.325342c-1.569733,-1.576846 -1.569733,-4.730538 1.569733,-7.095807c2.3546,-3.153692 25.115733,7.88423 50.231466,22.864266l45.522267,28.383227l10.988133,-20.498997c11.773,-22.864266 13.342733,-20.498997 -43.167667,-62.285414c-35.319,-26.806381 -18.8368,-28.383227 21.976267,-3.153692c41.597933,26.017958 42.3828,25.229535 50.231466,-43.363263c7.0638,-60.708569 -21.976267,-307.484957 -37.6736,-323.253417c-7.0638,-7.095807 -159.327933,11.037922 -200.140999,23.652689c-32.9644,9.461076 -43.952533,18.133728 -54.1558,37.844302c-65.143933,126.936098 -200.925866,257.81431 -395.572799,379.231447c-58.865,36.267457 -85.550466,68.592798 -86.335333,105.648678c0,11.037922 -7.0638,21.28742 -19.621667,26.806381c-10.988133,4.730538 -21.1914,18.133728 -23.546,29.960073c-4.7092,22.864266 -25.9006,33.902188 -43.952533,22.864266c-8.633533,-4.730538 -7.0638,-15.768459 6.278933,-57.554877c9.4184,-29.17165 15.697333,-52.035916 15.697333,-52.035916c-0.784867,0 -18.8368,5.518961 -40.0282,11.826345c-54.940666,16.556882 -61.2196,15.768459 -58.080133,-9.461076c1.569733,-18.133728 7.848667,-23.652689 30.6098,-29.17165c16.4822,-3.942115 30.6098,-13.40319 35.319,-23.652689c4.7092,-10.249499 18.051933,-18.133728 39.243333,-22.864266c28.2552,-5.518961 36.888733,-11.826345 62.004466,-51.247493c121.654333,-185.279397 262.145466,-323.253417 402.636599,-394.999907c27.470333,-14.191613 32.9644,-21.28742 47.876866,-69.381221c17.267067,-54.401185 32.179533,-131.666636 32.179533,-168.722515c0,-18.133728 -4.7092,-21.28742 -58.080133,-33.902188c-117.73,-27.594804 -310.807199,-48.093801 -310.807199,-32.325342c0,2.365269 7.0638,18.922151 16.4822,36.267457c8.633533,18.133728 14.1276,34.690611 11.773,37.055879c-5.494067,5.518961 -5.494067,5.518961 -30.6098,-35.479034c-19.621667,-31.536919 -21.976267,-32.325342 -45.522267,-26.017958c-13.342733,3.942115 -26.685467,8.672653 -28.2552,10.249499c-1.569733,2.365269 7.848667,22.075843 21.1914,44.940109c33.749267,57.554877 25.115733,67.015952 -12.557867,13.40319c-16.4822,-24.441112 -34.534133,-44.940109 -39.243333,-44.940109c-3.924333,0 -37.6736,11.826345 -74.562333,26.806381c-36.103867,14.980036 -79.271533,29.17165 -94.968866,32.325342c-15.697333,3.153692 -37.6736,15.768459 -50.231466,28.383227c-11.773,12.614767 -25.115733,22.864266 -29.824933,22.864266c-3.924333,0 3.139467,-11.826345 17.267067,-26.017958c14.1276,-14.191613 25.115733,-29.17165 25.115733,-32.325342c0,-3.153692 19.621667,-28.383227 43.167667,-54.401185c23.546,-26.806381 39.243333,-50.45907 34.534133,-52.035916c-4.7092,-1.576846 -23.546,3.153692 -42.3828,11.037922c-36.103867,13.40319 -93.399133,69.381221 -138.136533,135.60875c-36.888733,52.824339 -90.259666,171.876207 -111.451066,246.776389c-26.685467,92.245487 -40.0282,238.892159 -29.040067,315.369187c11.773,81.995989 30.6098,336.656607 31.394667,418.652596l0,68.592798l65.143933,5.518961c35.319,2.365269 93.399133,8.672653 128.718133,12.614767c35.319,3.942115 96.5386,11.037922 137.351666,14.980036c40.0282,4.730538 88.689933,11.826345 108.3116,15.768459c19.621667,3.942115 90.259666,5.518961 156.973333,3.942115c98.8932,-2.365269 134.2122,-6.307384 188.367999,-22.075843zm317.086132,-29.17165c91.8294,-31.536919 213.483733,-48.882224 379.090599,-52.824339c123.224066,-3.153692 159.327933,-7.095807 162.467399,-14.980036c7.0638,-18.922151 -31.394667,-21.28742 -159.327933,-11.826345c-190.722599,13.40319 -364.178132,46.516955 -408.915532,76.477028c-32.9644,22.864266 -30.6098,22.864266 26.685467,3.153692zm126.363533,-75.688605c91.8294,-19.710574 229.965933,-33.902188 334.353199,-34.690611l99.678066,0l11.773,-29.960073c29.824933,-75.688605 37.6736,-208.143663 17.267067,-304.331266c-21.1914,-101.706563 -67.498533,-180.54886 -163.252266,-279.101731c-58.080133,-60.708569 -124.008933,-98.552871 -205.635066,-119.840291c-94.968866,-24.441112 -88.689933,-30.748496 -72.9926,77.265451c19.621667,128.512944 25.9006,264.121694 14.912467,319.311302c-6.278933,37.055879 -6.278933,49.670647 2.3546,63.073837c51.8012,82.784412 29.040067,158.473017 -83.195866,284.620691c-25.115733,29.17165 -35.319,44.940109 -25.9006,40.997994c8.633533,-3.153692 40.813067,-11.037922 70.638,-17.345305zm14.1276,-497.494893c6.278933,-36.267457 6.278933,-74.900182 -0.784867,-145.858249c-13.342733,-137.185596 -15.697333,-143.49298 -51.016333,-146.646672c-32.179533,-3.153692 -32.9644,-0.788423 -21.1914,49.670647c10.988133,44.940109 39.243333,265.69854 40.0282,309.850226l0.784867,37.055879l11.773,-27.594804c6.278933,-14.980036 15.697333,-49.670647 20.406533,-76.477028zm-666.351798,26.806381c25.9006,-17.345305 68.2834,-53.612762 94.184,-79.63072c45.522267,-45.728532 127.1484,-152.165633 120.869466,-158.473017c-3.924333,-4.730538 -101.2478,59.131723 -143.630599,94.610756c-40.0282,33.113765 -121.654333,130.878213 -142.060866,171.087784c-11.773,22.864266 -11.773,22.864266 6.278933,13.40319c10.203267,-5.518961 39.243333,-23.652689 64.359066,-40.997994zm1009.33853,-288.562806c-28.2552,-40.209571 -102.817533,-100.91814 -184.443666,-149.800364c-98.8932,-59.131723 -213.483733,-115.898176 -220.547533,-109.590793c-2.3546,3.153692 -0.784867,17.345305 3.924333,31.536919c9.4184,28.383227 19.621667,33.902188 244.093532,148.223518c58.080133,29.17165 120.0846,64.650683 137.351666,77.265451c39.243333,29.960073 40.0282,29.960073 19.621667,2.365269zm-1628.598328,-160.049862c44.7374,-96.976025 76.916933,-220.758431 101.2478,-388.692523c15.697333,-111.167638 24.330867,-248.353235 14.912467,-248.353235c-16.4822,0 -87.905066,85.938103 -112.235933,133.243482c-45.522267,90.668641 -58.080133,160.838285 -58.080133,316.15761c-0.784867,130.08979 7.848667,260.179579 15.697333,260.179579c2.3546,0 19.621667,-33.113765 38.458467,-72.534913zm1110.586329,36.267457c32.179533,-3.153692 54.940666,-8.672653 54.1558,-14.191613c0,-4.730538 -6.278933,-26.017958 -14.1276,-48.093801c-10.988133,-31.536919 -19.621667,-42.57484 -41.597933,-53.612762c-15.697333,-7.88423 -38.458467,-14.980036 -50.231466,-15.768459c-19.621667,-1.576846 -21.1914,1.576846 -31.394667,49.670647c-6.278933,27.594804 -15.697333,63.86226 -21.976267,79.63072l-11.773,28.383227l31.394667,-10.249499c16.4822,-6.307384 54.940666,-13.40319 85.550466,-15.768459zm-1025.035863,-155.319325c42.3828,-57.554877 98.8932,-360.309296 98.8932,-527.454965c0,-37.055879 0,-37.055879 -19.621667,-28.383227c-18.8368,8.672653 -19.621667,11.826345 -19.621667,80.419143c0,147.435095 -33.749267,356.367181 -76.132066,469.900089c-20.406533,53.612762 -18.8368,54.401185 16.4822,5.518961zm1083.900863,-72.534913c-29.040067,-78.842297 -101.2478,-219.970008 -149.124666,-291.716498c-37.6736,-56.766454 -105.957,-134.031905 -105.957,-119.840291c0,3.153692 10.988133,23.652689 24.330867,45.728532c29.040067,46.516955 77.7018,155.319325 77.7018,172.66463c0,6.307384 5.494067,22.864266 12.557867,35.479034c7.0638,13.40319 29.824933,60.708569 51.016333,105.648678c35.319,78.842297 39.243333,82.784412 71.422866,95.399179c18.8368,7.095807 34.534133,12.614767 36.103867,11.826345c0.784867,-1.576846 -7.0638,-26.017958 -18.051933,-55.189608zm-231.535666,17.345305c0,-26.806381 0,-26.806381 -56.5104,-39.421148c-111.451066,-24.441112 -212.698866,-33.113765 -266.069799,-22.864266c-61.2196,11.037922 -78.486666,25.229535 -31.394667,25.229535c39.243333,0 245.663266,34.690611 302.958532,50.45907c21.976267,6.307384 41.597933,11.826345 45.522267,11.826345c3.139467,0.788423 5.494067,-11.037922 5.494067,-25.229535zm-685.973464,-93.822333c90.259666,-60.708569 148.339799,-65.439106 218.192933,-18.133728c25.9006,17.345305 36.888733,19.710574 105.172133,19.710574c49.4466,0 124.7938,8.672653 211.913999,23.652689c75.3472,13.40319 138.136533,23.652689 139.706266,23.652689c16.4822,0 -14.1276,-145.069826 -44.7374,-210.508932c-59.649866,-126.936098 -203.280466,-243.622697 -348.480799,-282.255422c-62.789333,-16.556882 -205.635066,-16.556882 -274.703332,0.788423l-51.016333,12.614767l0,78.053874c0,113.532907 -25.9006,291.716498 -60.434733,417.07575c-5.494067,19.710574 -4.7092,19.710574 21.976267,-3.942115c14.912467,-13.40319 51.8012,-40.997994 82.411,-60.708569zm740.914131,-31.536919c-17.267067,-118.263445 -46.307133,-178.183591 -120.869466,-242.834274l-29.824933,-26.806381l30.6098,50.45907c55.725533,93.822333 96.5386,210.508932 96.5386,279.890154c0,35.479034 25.9006,53.612762 29.824933,21.28742c1.569733,-11.037922 -0.784867,-48.093801 -6.278933,-81.995989zm-1160.817796,-114.32133c20.406533,-61.496991 18.8368,-73.323336 -29.824933,-250.718504c-45.522267,-167.145669 -74.562333,-238.892159 -117.73,-290.928075l-19.621667,-24.441112l5.494067,43.363263c7.0638,52.035916 31.394667,149.800364 72.9926,288.562806c16.4822,55.978031 38.458467,144.281403 48.661733,194.740473c10.988133,50.45907 19.621667,92.245487 20.406533,92.245487c0.784867,0 9.4184,-23.652689 19.621667,-52.824339zm344.556465,-373.712487c0,-38.632725 -23.546,-204.989972 -40.0282,-283.043845c-40.813067,-188.433089 -115.3754,-365.828257 -232.320533,-553.472923c-49.4466,-79.63072 -71.422866,-94.610756 -29.040067,-19.710574c40.0282,70.169644 105.957,209.720509 140.491133,295.658613c56.5104,144.281403 87.905066,281.466999 111.451066,483.303279l13.342733,115.898176l18.051933,-8.672653c12.557867,-5.518961 18.051933,-14.980036 18.051933,-29.960073zm-321.795332,-138.762442c-60.434733,-190.798358 -81.626133,-361.886142 -70.638,-585.798265c3.139467,-75.688605 5.494067,-138.762442 3.924333,-140.339288c-7.0638,-7.095807 -43.952533,181.337283 -47.876866,244.41112c-9.4184,137.974019 17.267067,310.638649 65.9288,428.902094c20.406533,49.670647 60.434733,121.417137 67.498533,121.417137c1.569733,0 -7.0638,-30.748496 -18.8368,-68.592798zm405.776065,-1874.081394c-10.203267,-78.053874 -175.810133,-170.299361 -264.500066,-146.646672c-17.267067,4.730538 -31.394667,9.461076 -31.394667,11.826345c0,1.576846 27.470333,11.826345 62.004466,23.652689c106.741866,35.479034 198.571266,100.91814 209.559399,148.223518c4.7092,23.652689 5.494067,23.652689 16.4822,8.672653c7.0638,-9.461076 10.203267,-26.017958 7.848667,-45.728532z"/>
   <path stroke="null" id="svg_3" d="m2598.622762,4801.837924c-14.912467,-8.672653 -35.319,-10.249499 -82.411,-7.095807c-70.638,5.518961 -143.630599,-8.672653 -191.507466,-37.844302c-15.697333,-9.461076 -80.841266,-68.592798 -145.985199,-132.455059c-164.821999,-161.626708 -265.284932,-223.912123 -379.875465,-235.738467c-48.661733,-4.730538 -70.638,-18.922151 -44.7374,-29.17165c6.278933,-2.365269 86.335333,20.498997 177.379866,52.035916c91.044533,30.748496 168.746333,55.189608 173.455533,53.612762c12.557867,-3.942115 -114.590533,-84.361258 -167.176599,-105.648678c-27.470333,-11.037922 -71.422866,-22.075843 -98.8932,-24.441112c-52.586066,-4.730538 -59.649866,-8.672653 -48.661733,-26.017958c6.278933,-10.249499 25.115733,-5.518961 115.3754,26.017958c59.649866,21.28742 157.758199,52.824339 218.192933,69.381221c291.970399,83.572835 400.281999,127.724521 449.728598,184.490974c29.040067,33.113765 48.661733,81.995989 48.661733,120.628714c0,8.672653 10.203267,19.710574 27.470333,27.594804c14.912467,7.095807 27.470333,16.556882 27.470333,21.28742c0,4.730538 -14.1276,0.788423 -31.394667,-7.88423c-29.824933,-14.980036 -55.725533,-19.710574 -64.359066,-11.826345c-10.988133,11.037922 4.7092,42.57484 25.9006,52.035916c12.557867,4.730538 25.115733,12.614767 27.470333,15.768459c6.278933,11.037922 -14.1276,7.88423 -36.103867,-4.730538z"/>
   <path stroke="null" id="svg_4" d="m1002.988834,3538.784329c-10.203267,-122.20556 -68.2834,-224.700546 -225.256733,-396.576753c-70.638,-77.265451 -117.73,-137.185596 -131.8576,-164.7804c-19.621667,-40.997994 -21.1914,-52.035916 -21.976267,-146.646672c0,-59.920146 -4.7092,-111.956061 -10.203267,-125.359252c-14.1276,-35.479034 -3.924333,-33.902188 14.912467,2.365269c13.342733,26.806381 19.621667,32.325342 39.243333,32.325342c21.1914,0 23.546,-2.365269 23.546,-25.229535c-0.784867,-14.191613 -5.494067,-34.690611 -11.773,-45.728532c-13.342733,-23.652689 -14.1276,-31.536919 -4.7092,-31.536919c3.924333,0 11.773,11.826345 17.267067,26.806381c8.633533,24.441112 14.1276,27.594804 53.370933,35.479034c90.259666,18.133728 131.8576,67.804375 180.519333,216.027893c36.888733,112.744484 41.597933,130.08979 68.2834,249.930081c10.988133,49.670647 37.6736,144.281403 58.080133,209.720509c46.307133,146.646672 50.231466,168.722515 27.470333,168.722515c-8.633533,0 -11.773,-8.672653 -11.773,-33.902188c0,-72.534913 -38.458467,-171.087784 -103.6024,-268.063809c-17.267067,-25.229535 -32.179533,-44.940109 -33.749267,-43.363263c-4.7092,4.730538 25.9006,121.417137 63.5742,238.892159c34.534133,107.225524 40.0282,145.858249 21.976267,151.37721c-5.494067,1.576846 -10.203267,-16.556882 -13.342733,-50.45907z"/>
  </g>
 </g>
</svg>